<?xml version="1.0" encoding="UTF-8" standalone="no"?>
<!-- Created with Inkscape (http://www.inkscape.org/) -->

<svg
   xmlns:dc="http://purl.org/dc/elements/1.1/"
   xmlns:cc="http://creativecommons.org/ns#"
   xmlns:rdf="http://www.w3.org/1999/02/22-rdf-syntax-ns#"
   xmlns:svg="http://www.w3.org/2000/svg"
   xmlns="http://www.w3.org/2000/svg"
   xmlns:sodipodi="http://sodipodi.sourceforge.net/DTD/sodipodi-0.dtd"
   xmlns:inkscape="http://www.inkscape.org/namespaces/inkscape"
   height="100mm"
   width="480mm"
   version="1.1"
   viewBox="0 0 1814.1732 377.95276"
   id="svg12"
   sodipodi:docname="LongLogo2.svg"
   inkscape:version="0.92.2 5c3e80d, 2017-08-06">
  <defs
     id="defs16" />
  <sodipodi:namedview
     pagecolor="#ffffff"
     bordercolor="#666666"
     borderopacity="1"
     objecttolerance="10"
     gridtolerance="10"
     guidetolerance="10"
     inkscape:pageopacity="0"
     inkscape:pageshadow="2"
     inkscape:window-width="1284"
     inkscape:window-height="978"
     id="namedview14"
     showgrid="false"
     inkscape:zoom="20.602222"
     inkscape:cx="17.336648"
     inkscape:cy="377.70519"
     inkscape:window-x="0"
     inkscape:window-y="0"
     inkscape:window-maximized="0"
     inkscape:current-layer="svg12" />
  <metadata
     id="metadata2">
    <rdf:RDF>
      <cc:Work
         rdf:about="">
        <dc:format>image/svg+xml</dc:format>
        <dc:type
           rdf:resource="http://purl.org/dc/dcmitype/StillImage" />
        <dc:title></dc:title>
      </cc:Work>
    </rdf:RDF>
  </metadata>
  <g
     transform="matrix(3.066,0,0,3.066,-368.34079,-1293.7638)"
     id="g10"
     style="fill:none;stroke-width:3.5">
    <path
       d="M 197.4,500.8 H 212 l 11.78,44.3 29.8,-122.7 v 78.4 h 17.17"
       id="path4"
       inkscape:connector-curvature="0"
       style="stroke:#f80202" />
    <path
       d="m 197.4,500.8 h -11.78 l 17.34,-69.9 -22.17,16.4 -13.37,-16.4 -11.77,46 -1.944,6.1 c -2.188,5.1 -5.088,9.8 -9.628,13.3 -5.345,4.1 -8.675,4.2 -12.39,4.5 h -11.55"
       id="path6"
       inkscape:connector-curvature="0"
       style="stroke:#000000" />
    <path
       d="M 693.1,500.8 H 336.2 l 17.34,-69.9 -22.17,16.4 -13.37,-16.4 -11.77,46 -1.944,6.1 c -2.188,5.1 -5.088,9.8 -9.628,13.3 -5.345,4.1 -8.675,4.2 -12.39,4.5 h -11.55"
       id="path8"
       inkscape:connector-curvature="0"
       style="stroke:#000000" />
  </g>
</svg>
