<!-- Created with Inkscape (http://www.inkscape.org/) -->
<svg xmlns:rdf="http://www.w3.org/1999/02/22-rdf-syntax-ns#" xmlns="http://www.w3.org/2000/svg" height="161.8" viewBox="0 0 64 64" width="100" version="1.1" xmlns:cc="http://creativecommons.org/ns#" xmlns:dc="http://purl.org/dc/elements/1.1/">
 <metadata>
  <rdf:RDF>
   <cc:Work rdf:about="">
    <dc:format>image/svg+xml</dc:format>
    <dc:type rdf:resource="http://purl.org/dc/dcmitype/StillImage"/>
    <dc:title/>
   </cc:Work>
  </rdf:RDF>
 </metadata>
 <g stroke="#396c72" stroke-width="1.28" fill="none">
  <path stroke-linejoin="round" stroke-linecap="round" d="m16.18 2.466a16 16 0 0 1 10.59 -14.64 16 16 0 0 1 17.48 4.564 16 16 0 0 1 2.09 17.94"/>
  <path d="m46.36 10.32c-6.67 10.74-14.05 16.62-14.05 16.62"/>
  <path stroke-linejoin="round" transform="scale(-1)" stroke-linecap="round" d="m-48.46-51.39a16 16 0 0 1 10.59 -14.63 16 16 0 0 1 17.48 4.56 16 16 0 0 1 2.091 17.94"/>
  <path d="m18.28 43.53c6.67-10.73 14.05-16.62 14.05-16.62"/>
  <path stroke-linejoin="round" stroke-linecap="round" d="m35.86 76.24a3.78 3.78 0 0 1 -5.055 1.591 3.78 3.78 0 0 1 -1.679 -5.026 3.78 3.78 0 0 1 4.996 -1.766 3.78 3.78 0 0 1 1.852 4.965"/>
 </g>
</svg>
